<?xml version="1.0" encoding="UTF-8" standalone="no"?>
<!-- Created with Inkscape (http://www.inkscape.org/) -->

<svg
   width="24"
   height="24"
   viewBox="0 0 6.35 6.35"
   version="1.1"
   id="svg1"
   xml:space="preserve"
   xmlns="http://www.w3.org/2000/svg"
   xmlns:svg="http://www.w3.org/2000/svg"><defs
     id="defs1" /><g
     id="layer1"><g
       style="fill:#1f1f1f"
       id="g1"
       transform="matrix(0.00661458,0,0,0.00661458,0.1322932,6.3499984)"><path
         d="m 360,-240 q -33,0 -56.5,-23.5 Q 280,-287 280,-320 v -480 q 0,-33 23.5,-56.5 Q 327,-880 360,-880 h 360 q 33,0 56.5,23.5 23.5,23.5 23.5,56.5 v 480 q 0,33 -23.5,56.5 Q 753,-240 720,-240 Z m 0,-80 H 720 V -800 H 360 Z M 200,-80 q -33,0 -56.5,-23.5 Q 120,-127 120,-160 v -560 h 80 v 560 h 440 v 80 z m 160,-240 v -480 z"
         id="path1" /></g><g
       style="fill:#1f1f1f"
       id="g2"
       transform="matrix(0.00248047,0,0,0.00248047,2.5135407,3.8364592)"><path
         d="m 376.39258,-830.23633 -40,160 h -160 l -35.11914,140.47266 h 160 l -24.88282,99.52734 H 116.39258 L 81.273437,-289.76367 H 241.27344 l -40,160 h 142.33398 l 40,-160 h 97.66602 l -40,160 h 142.33398 l 40,-160 h 160 l 35.11914,-140.47266 h -160 l 24.88281,-99.52734 h 159.99805 l 35.11914,-140.47266 h -160 l 40,-160 H 616.39258 l -40,160 h -97.66602 l 40,-160 z m 67.21679,300.47266 h 97.66407 l -24.88282,99.52734 h -97.66406 z"
         id="path1-1" /></g></g></svg>
